<svg width="14" height="14" viewBox="0 0 14 14" fill="none" xmlns="http://www.w3.org/2000/svg">
<path d="M6.99996 6.61385C7.05055 6.61385 7.10066 6.60388 7.1474 6.58452C7.19415 6.56515 7.23662 6.53677 7.2724 6.501C7.30818 6.46522 7.33656 6.42274 7.35592 6.376C7.37528 6.32925 7.38525 6.27915 7.38525 6.22855C7.38525 6.17796 7.37528 6.12785 7.35592 6.08111C7.33656 6.03436 7.30818 5.99189 7.2724 5.95611C7.23662 5.92033 7.19415 5.89195 7.1474 5.87259C7.10066 5.85323 7.05055 5.84326 6.99996 5.84326C6.89777 5.84326 6.79977 5.88385 6.72751 5.95611C6.65526 6.02837 6.61466 6.12637 6.61466 6.22855C6.61466 6.33074 6.65526 6.42874 6.72751 6.501C6.79977 6.57325 6.89777 6.61385 6.99996 6.61385ZM9.69787 6.61385C9.74847 6.61385 9.79857 6.60388 9.84532 6.58452C9.89206 6.56515 9.93454 6.53677 9.97032 6.501C10.0061 6.46522 10.0345 6.42274 10.0538 6.376C10.0732 6.32925 10.0832 6.27915 10.0832 6.22855C10.0832 6.17796 10.0732 6.12785 10.0538 6.08111C10.0345 6.03436 10.0061 5.99189 9.97032 5.95611C9.93454 5.92033 9.89206 5.89195 9.84532 5.87259C9.79857 5.85323 9.74847 5.84326 9.69787 5.84326C9.59569 5.84326 9.49769 5.88385 9.42543 5.95611C9.35317 6.02837 9.31258 6.12637 9.31258 6.22855C9.31258 6.33074 9.35317 6.42874 9.42543 6.501C9.49769 6.57325 9.59569 6.61385 9.69787 6.61385ZM4.30204 6.61385C4.35264 6.61385 4.40274 6.60388 4.44948 6.58452C4.49623 6.56515 4.5387 6.53677 4.57448 6.501C4.61026 6.46522 4.63864 6.42274 4.658 6.376C4.67737 6.32925 4.68733 6.27915 4.68733 6.22855C4.68733 6.17796 4.67737 6.12785 4.658 6.08111C4.63864 6.03436 4.61026 5.99189 4.57448 5.95611C4.5387 5.92033 4.49623 5.89195 4.44948 5.87259C4.40274 5.85323 4.35264 5.84326 4.30204 5.84326C4.19985 5.84326 4.10185 5.88385 4.0296 5.95611C3.95734 6.02837 3.91675 6.12637 3.91675 6.22855C3.91675 6.33074 3.95734 6.42874 4.0296 6.501C4.10185 6.57325 4.19985 6.61385 4.30204 6.61385Z" stroke="#545454" stroke-linecap="round" stroke-linejoin="round"/>
<path d="M12.3958 6.38177V8.23094C12.3947 8.84509 12.1516 9.43406 11.7191 9.87011C11.5019 10.083 11.2467 10.2532 10.9666 10.3718C10.6867 10.4851 10.3878 10.5444 10.0858 10.5468H8.53996L7.26829 11.8184C7.23246 11.854 7.19109 11.8836 7.14579 11.9059C7.09958 11.9252 7.05002 11.9351 6.99996 11.9351C6.9499 11.9351 6.90034 11.9252 6.85413 11.9059C6.80883 11.8836 6.76746 11.854 6.73163 11.8184L5.45996 10.5468H3.91413C3.302 10.5442 2.7154 10.3012 2.28079 9.87011C1.84831 9.43406 1.60517 8.84509 1.60413 8.23094V4.38094C1.60413 3.7621 1.84996 3.16861 2.28754 2.73102C2.72513 2.29344 3.31862 2.04761 3.93746 2.04761H7.58329" stroke="#545454" stroke-width="0.8" stroke-linecap="round" stroke-linejoin="round"/>
<path d="M11.8124 2.1875L9.77075 4.2245M9.77075 2.19217L11.8124 4.22917" stroke="#545454" stroke-width="0.8" stroke-miterlimit="10" stroke-linecap="round"/>
</svg>
