<svg width="15" height="15" viewBox="0 0 15 15" fill="none" xmlns="http://www.w3.org/2000/svg">
<g clip-path="url(#clip0_588_1092)">
<path d="M12.5 1.25H5.83337V3.33333H6.66671V2.08333H12.5C12.75 2.08333 12.9167 2.25 12.9167 2.5V7.08333C12.9167 7.33333 12.75 7.5 12.5 7.5H7.08337V10.4167H4.87504L3.33337 11.625V10.4167H2.08337C1.83337 10.4167 1.66671 10.25 1.66671 10V5.41667C1.66671 5.16667 1.83337 5 2.08337 5H7.50004V4.16667H2.08337C1.37504 4.16667 0.833374 4.70833 0.833374 5.41667V10C0.833374 10.7083 1.37504 11.25 2.08337 11.25H2.50004V13.375L5.12504 11.25H7.91671V8.33333H12.5C13.2084 8.33333 13.75 7.79167 13.75 7.08333V2.5C13.75 1.79167 13.2084 1.25 12.5 1.25Z" fill="#545454"/>
<path d="M2.58337 9.54159H3.58337L3.83337 8.87492H5.12504L5.37504 9.54159H6.37504L4.95837 5.83325H3.95837L2.58337 9.54159ZM4.45837 6.87492L4.87504 8.16659H4.04171L4.45837 6.87492Z" fill="#545454"/>
<path d="M8.33337 7.08333C8.79171 7.08333 9.41671 6.95833 10 6.66667C10.5834 6.95833 11.25 7.08333 11.6667 7.08333V6.25C11.6667 6.25 11.25 6.25 10.7917 6.08333C11.2917 5.58333 11.6667 4.83333 11.6667 3.75V3.33333H10.4167V2.5H9.58337V3.33333H8.33337V4.16667H10.7917C10.7084 4.91667 10.375 5.375 10 5.66667C9.75004 5.45833 9.50004 5.16667 9.33337 4.79167H8.45837C8.62504 5.33333 8.87504 5.75 9.20837 6.08333C8.79171 6.25 8.41671 6.25 8.33337 6.25V7.08333Z" fill="#545454"/>
</g>
<defs>
<clipPath id="clip0_588_1092">
<rect width="15" height="15" fill="white"/>
</clipPath>
</defs>
</svg>
