<svg width="16" height="16" viewBox="0 0 16 16" fill="none" xmlns="http://www.w3.org/2000/svg">
<path d="M8 13C7.17423 13 6.39645 12.8422 5.66667 12.5267C4.93689 12.2111 4.30134 11.7822 3.76 11.24C3.21867 10.6978 2.78978 10.0622 2.47334 9.33333C2.15689 8.60445 1.99911 7.82667 2 7C2 6.172 2.15778 5.39356 2.47334 4.66467C2.78889 3.93578 3.21778 3.30089 3.76 2.76C4.30223 2.21911 4.93778 1.79045 5.66667 1.474C6.39556 1.15756 7.17334 0.999556 8 1C8.828 1 9.60645 1.15778 10.3353 1.47333C11.0642 1.78889 11.6993 2.21778 12.2407 2.76C12.782 3.30222 13.2104 3.93711 13.526 4.66467C13.8416 5.39222 13.9996 6.17067 14 7C14 7.82578 13.8422 8.60356 13.5267 9.33333C13.2111 10.0631 12.7822 10.6987 12.24 11.24C11.6978 11.7813 11.0629 12.2102 10.3353 12.5267C9.60778 12.8431 8.82934 13.0009 8 13ZM8 12.3387C8.39112 11.836 8.71378 11.3424 8.968 10.858C9.22223 10.3736 9.42867 9.83133 9.58734 9.23133H6.41267C6.58867 9.86511 6.79934 10.4242 7.04467 10.9087C7.29 11.3931 7.60845 11.8698 8 12.3387ZM7.15134 12.2387C6.84023 11.872 6.55623 11.4187 6.29934 10.8787C6.04245 10.3391 5.85134 9.78978 5.726 9.23067H3.16867C3.55089 10.06 4.09245 10.74 4.79334 11.2707C5.49423 11.8013 6.28 12.124 7.15067 12.2387M8.848 12.2387C9.71823 12.124 10.504 11.8013 11.2053 11.2707C11.9067 10.74 12.4482 10.06 12.83 9.23067H10.274C10.1051 9.79822 9.89245 10.352 9.636 10.892C9.37912 11.4316 9.11645 11.8804 8.848 12.2387ZM2.89667 8.564H5.58667C5.536 8.29067 5.50045 8.02422 5.48 7.76467C5.45867 7.50511 5.448 7.25022 5.448 7C5.448 6.74978 5.45845 6.49489 5.47934 6.23533C5.50023 5.97578 5.53578 5.70911 5.586 5.43533H2.898C2.82556 5.66645 2.76889 5.91822 2.728 6.19067C2.68711 6.46311 2.66667 6.73289 2.66667 7C2.66667 7.26711 2.68689 7.53689 2.72734 7.80933C2.76778 8.08178 2.82445 8.33333 2.89734 8.564M6.254 8.564H9.746C9.79667 8.29067 9.83223 8.02845 9.85267 7.77733C9.87312 7.52622 9.884 7.26711 9.88534 7C9.88667 6.73289 9.87623 6.47378 9.854 6.22267C9.83178 5.97156 9.79623 5.70933 9.74734 5.436H6.25334C6.20312 5.70933 6.16756 5.97156 6.14667 6.22267C6.12578 6.47378 6.11534 6.73289 6.11534 7C6.11534 7.26711 6.12578 7.52622 6.14667 7.77733C6.16756 8.02845 6.20378 8.29067 6.254 8.564ZM10.4133 8.564H13.1027C13.1751 8.33289 13.2318 8.08133 13.2727 7.80933C13.3136 7.53733 13.3338 7.26756 13.3333 7C13.3329 6.73245 13.3127 6.46267 13.2727 6.19067C13.2327 5.91867 13.176 5.66711 13.1027 5.436H10.4127C10.4633 5.70933 10.4989 5.97578 10.5193 6.23533C10.5407 6.49489 10.5513 6.74978 10.5513 7C10.5513 7.25022 10.5409 7.50511 10.52 7.76467C10.4991 8.02422 10.4636 8.29089 10.4133 8.56467M10.2747 4.76933H12.8307C12.44 3.92311 11.9049 3.24311 11.2253 2.72933C10.5453 2.21556 9.75312 1.88889 8.84867 1.74933C9.15978 2.15822 9.43956 2.62622 9.688 3.15333C9.93645 3.68045 10.132 4.21911 10.2747 4.76933ZM6.41267 4.76933H9.58734C9.41134 4.14356 9.19423 3.57778 8.936 3.072C8.67778 2.56622 8.36578 2.096 8 1.66133C7.63423 2.09556 7.32223 2.56578 7.064 3.072C6.80623 3.57778 6.58912 4.14356 6.41267 4.76933ZM3.16934 4.76933H5.72534C5.86845 4.21867 6.064 3.68 6.312 3.15333C6.56 2.62667 6.83978 2.15845 7.15134 1.74867C6.23845 1.88867 5.44423 2.21756 4.76867 2.73533C4.09311 3.25311 3.55978 3.93089 3.16867 4.76867" fill="#545454"/>
</svg>
